<svg
  viewBox="0 0 35 44"
  fill="none"
  xmlns="http://www.w3.org/2000/svg"
>
  <path
    d="M11.0897 37.0907C9.1467 35.319 8.57948 31.5964 9.389 28.8994C10.7927 30.5998 12.7375 31.1384 14.7521 31.4425C17.862 31.9117 20.9163 31.7362 23.8053 30.3183C24.1358 30.1559 24.4412 29.9401 24.8023 29.7215C25.0734 30.506 25.144 31.298 25.0493 32.1041C24.819 34.0672 23.8396 35.5837 22.2819 36.7332C21.6589 37.193 20.9998 37.604 20.3565 38.0376C18.38 39.3701 17.8453 40.9326 18.588 43.2054C18.6056 43.2607 18.6214 43.3161 18.6613 43.4512C17.6522 43.0008 16.9151 42.3449 16.3534 41.4825C15.7602 40.5722 15.478 39.5653 15.4632 38.4758C15.4557 37.9456 15.4557 37.4107 15.3843 36.888C15.2097 35.6137 14.61 35.0431 13.4802 35.0103C12.3207 34.9765 11.4035 35.6916 11.1603 36.8177C11.1417 36.904 11.1148 36.9894 11.0879 37.0898L11.0897 37.0907Z"
    fill="currentColor"></path>
  <path
    d="M0 28.4501C0 28.4501 5.75362 25.6542 11.5233 25.6542L15.8735 12.2247C16.0363 11.5753 16.5119 11.1339 17.0487 11.1339C17.5856 11.1339 18.0611 11.5753 18.224 12.2247L22.5741 25.6542C29.4075 25.6542 34.0975 28.4501 34.0975 28.4501C34.0975 28.4501 24.3245 1.89274 24.3054 1.83945C24.0249 1.05428 23.5513 0.548584 22.9129 0.548584H11.1855C10.5471 0.548584 10.0927 1.05428 9.79312 1.83945C9.77201 1.89173 0 28.4501 0 28.4501Z"
    fill="currentColor"></path>
</svg>
