<svg
  viewBox="0 0 128 128"
  fill="none"
  xmlns="http://www.w3.org/2000/svg"
>
  <path
    fill-rule="evenodd"
    clip-rule="evenodd"
    d="M0 6C0 2.68629 2.68629 0 6 0H122C125.314 0 128 2.68629 128 6V122C128 125.314 125.314 128 122 128H6C2.68629 128 0 125.314 0 122V6ZM97.8489 107.305C94.3158 107.305 91.697 106.207 89.6121 104.43C87.1789 102.357 83.776 101.283 81.0116 102.889V102.889C78.3154 104.455 77.2482 107.93 79.3076 110.271C83.3453 114.862 89.5784 117.979 98.1272 117.979C109.552 117.979 118.059 112.047 118.059 101.218C118.059 91.1726 112.289 86.7048 102.069 82.3223L99.0618 81.0342C93.9012 78.7992 91.6663 77.3384 91.6663 73.73C91.6663 70.8104 93.8992 68.5755 97.4222 68.5755C98.8969 68.5755 100.147 68.841 101.257 69.4331C104.072 70.9355 107.433 72.2729 110.118 70.5489V70.5489C112.592 68.9603 113.472 65.6227 111.459 63.4794C107.852 59.639 103.265 58.0856 97.4222 58.0856C86.6804 58.0856 79.807 64.9529 79.807 73.9738C79.807 83.7669 85.5731 88.3992 94.2527 92.097L97.2597 93.3872C102.745 95.7867 106.017 97.2475 106.017 101.372C106.017 104.814 102.833 107.305 97.8489 107.305ZM51.2345 107.229C49.5017 107.229 48.1933 106.731 47.1187 105.905C44.4694 103.869 41.1281 102.475 38.2698 104.205V104.205C35.6748 105.776 34.6052 109.144 36.5641 111.46C39.7843 115.267 44.6716 117.957 51.7465 117.957C62.4051 117.957 69.7072 112.289 69.7072 99.8339V64.7723C69.7072 61.4586 67.0069 58.7723 63.6932 58.7723V58.7723C60.3795 58.7723 57.6792 61.4586 57.6792 64.7723V99.6714C57.6792 105.683 55.1863 107.229 51.2345 107.229Z"
    fill="currentColor"></path>
</svg>
