<svg
  viewBox="0 0 256 256"
  fill="none"
  xmlns="http://www.w3.org/2000/svg"
>
  <path
    fill-rule="evenodd"
    clip-rule="evenodd"
    d="M122 0H6C2.68628 0 0 2.68629 0 6V122C0 125.314 2.68628 128 6 128H122C125.314 128 128 125.314 128 122V6C128 2.68629 125.314 0 122 0ZM74.2622 99.468V113.494C76.5346 114.662 79.222 115.539 82.3247 116.123C85.4274 116.708 88.6975 117 92.1352 117C95.4855 117 98.6682 116.679 101.683 116.036C104.699 115.393 107.342 114.334 109.615 112.858C111.887 111.382 113.686 109.454 115.012 107.072C116.337 104.691 117 101.747 117 98.2407C117 95.6986 116.621 93.4706 115.864 91.5566C115.106 89.6427 114.014 87.9407 112.586 86.4504C111.159 84.9602 109.447 83.6234 107.452 82.44C105.456 81.2566 103.206 80.1389 100.7 79.087C98.8648 78.3273 97.2188 77.5895 95.7622 76.8736C94.3055 76.1577 93.0674 75.4272 92.0478 74.6821C91.0281 73.9369 90.2415 73.148 89.688 72.3152C89.1345 71.4825 88.8577 70.5401 88.8577 69.4882C88.8577 68.5239 89.1053 67.6546 89.6006 66.8803C90.0959 66.106 90.7951 65.4412 91.6982 64.886C92.6013 64.3309 93.7083 63.8999 95.0193 63.5931C96.3303 63.2862 97.7869 63.1328 99.3892 63.1328C100.555 63.1328 101.785 63.2205 103.082 63.3958C104.378 63.5711 105.682 63.8414 106.993 64.2067C108.304 64.5719 109.578 65.0321 110.817 65.5873C112.055 66.1425 113.198 66.7853 114.247 67.5158V54.4107C112.12 53.5925 109.797 52.9862 107.277 52.5917C104.757 52.1972 101.866 52 98.6026 52C95.2815 52 92.1352 52.3579 89.1636 53.0738C86.1921 53.7897 83.5774 54.9074 81.3196 56.4268C79.0618 57.9463 77.2774 59.8821 75.9665 62.2343C74.6555 64.5865 74 67.3989 74 70.6716C74 74.8501 75.2017 78.4149 77.6052 81.3661C80.0087 84.3174 83.6575 86.8157 88.5518 88.8611C90.4746 89.65 92.2663 90.4244 93.9268 91.1841C95.5874 91.9438 97.0222 92.7327 98.2312 93.5509C99.4402 94.3691 100.394 95.2603 101.093 96.2245C101.793 97.1888 102.142 98.2845 102.142 99.5118C102.142 100.418 101.924 101.258 101.487 102.032C101.05 102.806 100.387 103.478 99.4985 104.048C98.6099 104.618 97.5029 105.064 96.1773 105.385C94.8518 105.706 93.3005 105.867 91.5234 105.867C88.4935 105.867 85.4929 105.334 82.5213 104.267C79.5498 103.201 76.7968 101.601 74.2622 99.468ZM50.7026 64.5544H69V53H18V64.5544H36.2079V116H50.7026V64.5544ZM134 128C130.686 128 128 130.686 128 134V250C128 253.314 130.686 256 134 256H250C253.314 256 256 253.314 256 250V134C256 130.686 253.314 128 250 128H134ZM217.612 232.43C219.697 234.207 222.316 235.305 225.849 235.305C230.833 235.305 234.016 232.814 234.016 229.372C234.016 225.247 230.745 223.787 225.26 221.387L222.253 220.097C213.573 216.399 207.807 211.767 207.807 201.974C207.807 192.953 214.68 186.086 225.422 186.086C231.265 186.086 235.852 187.639 239.459 191.479C241.472 193.623 240.592 196.96 238.118 198.549C235.432 200.273 232.072 198.935 229.257 197.433C228.147 196.841 226.897 196.575 225.422 196.575C221.899 196.575 219.666 198.81 219.666 201.73C219.666 205.338 221.901 206.799 227.062 209.034L230.069 210.322C240.289 214.705 246.059 219.173 246.059 229.218C246.059 240.047 237.552 245.979 226.127 245.979C217.578 245.979 211.345 242.862 207.308 238.271C205.248 235.93 206.315 232.455 209.012 230.889C211.776 229.283 215.179 230.357 217.612 232.43ZM175.119 233.905C176.193 234.731 177.502 235.229 179.235 235.229C183.186 235.229 185.679 233.683 185.679 227.671V192.772C185.679 189.459 188.379 186.772 191.693 186.772C195.007 186.772 197.707 189.459 197.707 192.772V227.834C197.707 240.289 190.405 245.957 179.747 245.957C172.672 245.957 167.784 243.267 164.564 239.46C162.605 237.144 163.675 233.776 166.27 232.205C169.128 230.475 172.469 231.869 175.119 233.905Z"
    fill="currentColor"></path>
</svg>
